# xmcd CD Database Entry
#
# Track frame offsets:
# 150
# 17337
# 46614
# 65448
# 87685
# 109315
# 129882
# 144094
# 163098
# 177828
# 193557
# 210482
#
# Disc length: 3403 seconds
#
# Revision: 1
# Processed by: cddbd v1.4PL0 Copyright (c) Steve Scherf et al.
# Submitted via: tcd 2.0b
#
DISCID=970d490c
DTITLE=Lyle Lovett - The Road To Ensenda
DYEAR=1900
DGENRE=
TTITLE0=Don't Touch My Hat
TTITLE1=Her First Mistake
TTITLE2=Fiona
TTITLE3=That's Right (You're Not From Texas)
TTITLE4=Who Loves You Better
TTITLE5=Private Conversation
TTITLE6=Promises
TTITLE7=It Ought To Be Easier
TTITLE8=I Can't Love You Anymore
TTITLE9=Long Tall Texan
TTITLE10=Christmas Morning
TTITLE11=The Road To Ensenada
EXTD=
EXTT0=
EXTT1=
EXTT2=
EXTT3=
EXTT4=
EXTT5=
EXTT6=
EXTT7=
EXTT8=
EXTT9=
EXTT10=
EXTT11=
PLAYORDER=
